<svg width="200.501" height="72.402" viewBox="0 0 575.501 72.402" xmlns="http://www.w3.org/2000/svg"><g id="svgGroup" stroke-linecap="round" fill-rule="evenodd" font-size="9pt" stroke="#ff7c36" stroke-width="0.25mm" fill="#fe9e0d" style="stroke:#ff7c36;stroke-width:0.25mm;fill:#fe9e0d"><path d="M 351.201 71.201 L 342.201 71.201 L 342.201 1.201 L 355.501 1.201 L 374.901 45.501 L 394.001 1.201 L 407.601 1.201 L 407.601 71.201 L 398.101 71.201 L 398.101 13.301 L 379.401 55.401 L 370.001 55.401 L 351.201 13.301 L 351.201 71.201 Z M 462.101 71.201 L 453.101 71.201 L 453.101 1.201 L 465.701 1.201 L 496.601 59.401 L 496.601 1.201 L 505.601 1.201 L 505.601 71.201 L 493.201 71.201 L 462.101 13.401 L 462.101 71.201 Z M 572.801 5.701 L 569.301 13.601 Q 565.101 11.301 560.751 9.801 A 27.36 27.36 0 0 0 554.652 8.48 A 34.225 34.225 0 0 0 551.101 8.301 A 20.13 20.13 0 0 0 543.614 9.671 A 18.919 18.919 0 0 0 539.901 11.651 A 20.295 20.295 0 0 0 534.576 17.068 A 27.457 27.457 0 0 0 532.151 21.501 A 31.614 31.614 0 0 0 530.105 28.231 Q 529.502 31.363 529.351 34.955 A 58.311 58.311 0 0 0 529.301 37.401 Q 529.301 44.709 531.269 50.164 A 26.036 26.036 0 0 0 531.901 51.751 A 24.18 24.18 0 0 0 534.833 56.797 A 19.102 19.102 0 0 0 539.101 60.901 A 17.93 17.93 0 0 0 548.91 64.086 A 21.993 21.993 0 0 0 549.701 64.101 A 22.762 22.762 0 0 0 555.298 63.437 A 18.835 18.835 0 0 0 559.651 61.751 A 40.361 40.361 0 0 0 562.653 59.967 Q 564.938 58.463 566.501 56.901 L 566.501 41.601 L 552.001 41.601 L 552.001 34.101 L 575.501 34.101 L 575.501 71.201 L 567.101 71.201 L 567.101 64.201 A 35.883 35.883 0 0 1 562.722 67.492 A 47.354 47.354 0 0 1 558.601 69.851 A 23.594 23.594 0 0 1 549.195 72.35 A 28.131 28.131 0 0 1 547.501 72.401 A 26.572 26.572 0 0 1 538.188 70.801 A 24.511 24.511 0 0 1 533.101 68.201 Q 526.801 64.001 523.201 56.251 A 37.529 37.529 0 0 1 520.293 46.68 A 51.837 51.837 0 0 1 519.601 38.001 A 56.301 56.301 0 0 1 520.436 28.083 A 42.572 42.572 0 0 1 523.401 18.251 A 32.73 32.73 0 0 1 529.185 9.303 A 29.455 29.455 0 0 1 534.351 4.851 Q 541.501 0.001 551.601 0.001 Q 558.101 0.001 563.201 1.601 Q 568.301 3.201 572.801 5.701 Z M 330.201 68.201 L 321.301 72.401 L 312.601 53.401 A 30.586 30.586 0 0 0 310.009 48.827 Q 307.504 45.222 304.301 43.301 Q 299.945 40.687 293.465 40.35 A 37.847 37.847 0 0 0 291.501 40.301 L 290.001 40.301 L 290.001 71.201 L 280.501 71.201 L 280.501 1.401 Q 285.801 0.901 290.651 0.651 A 187.94 187.94 0 0 1 296.967 0.436 A 226.267 226.267 0 0 1 301.001 0.401 Q 313.801 0.401 320.251 5.601 A 17.414 17.414 0 0 1 324.88 11.135 Q 326.701 14.644 326.701 19.001 A 19.88 19.88 0 0 1 326.05 24.22 A 14.672 14.672 0 0 1 322.351 30.751 Q 318.001 35.201 309.801 37.401 A 23.656 23.656 0 0 1 313.23 39.263 A 20.427 20.427 0 0 1 314.601 40.251 Q 316.569 41.797 318.406 44.311 A 29.29 29.29 0 0 1 318.651 44.651 Q 320.601 47.401 322.601 51.801 L 330.201 68.201 Z M 177.701 71.201 L 168.201 71.201 L 168.201 1.201 L 209.701 1.201 L 209.701 9.401 L 177.701 9.401 L 177.701 30.801 L 204.401 30.801 L 204.401 38.601 L 177.701 38.601 L 177.701 71.201 Z M 270.501 68.701 L 261.801 72.201 L 254.001 52.201 L 221.601 52.201 L 213.801 72.001 L 205.701 68.701 L 233.101 1.201 L 243.501 1.201 L 270.501 68.701 Z M 57.701 59.601 L 66.601 64.501 L 62.301 72.401 L 52.601 65.201 A 31.258 31.258 0 0 1 46.61 69.114 A 37.52 37.52 0 0 1 43.901 70.351 A 27.019 27.019 0 0 1 37.287 72.088 A 35.306 35.306 0 0 1 32.501 72.401 A 34.822 34.822 0 0 1 24.652 71.548 A 28.732 28.732 0 0 1 18.851 69.551 Q 12.801 66.701 8.601 61.751 A 34.129 34.129 0 0 1 2.631 51.424 A 39.283 39.283 0 0 1 2.201 50.201 Q 0.001 43.601 0.001 36.101 A 46.749 46.749 0 0 1 1.101 25.764 A 38.315 38.315 0 0 1 3.901 17.651 Q 7.801 9.501 15.051 4.751 Q 22.301 0.001 32.501 0.001 A 35.418 35.418 0 0 1 40.35 0.838 A 29.08 29.08 0 0 1 46.151 2.801 Q 52.201 5.601 56.401 10.601 A 36 36 0 0 1 62.846 22.088 A 47.375 47.375 0 0 1 62.851 22.101 A 41.439 41.439 0 0 1 65.022 33.323 A 48.215 48.215 0 0 1 65.101 36.101 Q 65.101 43.352 63.199 48.832 A 27.738 27.738 0 0 1 62.901 49.651 Q 60.701 55.401 57.701 59.601 Z M 89.601 71.201 L 80.101 71.201 L 80.101 1.401 Q 84.201 0.901 89.151 0.651 A 200.806 200.806 0 0 1 98.081 0.404 A 221.966 221.966 0 0 1 99.401 0.401 Q 106.971 0.401 112.572 2.483 A 26.011 26.011 0 0 1 114.201 3.151 A 24.606 24.606 0 0 1 119.282 6.179 A 19.374 19.374 0 0 1 123.501 10.701 Q 126.701 15.501 126.701 21.701 A 25.258 25.258 0 0 1 125.992 27.823 A 19.268 19.268 0 0 1 123.001 34.401 A 22.312 22.312 0 0 1 115.449 41.03 A 28.065 28.065 0 0 1 112.701 42.351 A 34.774 34.774 0 0 1 104.611 44.574 A 47.194 47.194 0 0 1 97.401 45.101 Q 93.201 45.101 89.601 44.801 L 89.601 71.201 Z M 45.501 60.701 L 37.901 55.901 L 41.901 48.601 L 50.901 55.101 Q 53.301 51.201 54.351 46.551 A 41.439 41.439 0 0 0 55.17 41.285 A 55.717 55.717 0 0 0 55.401 36.101 Q 55.401 30.701 53.851 25.701 A 29.647 29.647 0 0 0 50.066 17.754 A 27.805 27.805 0 0 0 49.351 16.751 Q 46.401 12.801 42.151 10.501 A 19.165 19.165 0 0 0 34.848 8.315 A 23.691 23.691 0 0 0 32.501 8.201 A 23.683 23.683 0 0 0 26.309 8.976 A 18.838 18.838 0 0 0 20.201 11.851 A 22.551 22.551 0 0 0 13.303 19.896 A 27.531 27.531 0 0 0 12.401 21.801 A 33.09 33.09 0 0 0 10.049 30.57 A 42.465 42.465 0 0 0 9.701 36.101 Q 9.701 41.501 11.201 46.551 A 30.102 30.102 0 0 0 14.729 54.325 A 27.976 27.976 0 0 0 15.601 55.601 Q 18.501 59.601 22.701 61.901 A 18.74 18.74 0 0 0 29.676 64.057 A 23.421 23.421 0 0 0 32.301 64.201 A 29.177 29.177 0 0 0 36.445 63.918 A 22.935 22.935 0 0 0 39.751 63.201 A 27.908 27.908 0 0 0 42.683 62.153 Q 44.177 61.518 45.421 60.75 A 17.361 17.361 0 0 0 45.501 60.701 Z M 435.101 71.201 L 425.601 71.201 L 425.601 1.201 L 435.101 1.201 L 435.101 71.201 Z M 89.601 8.801 L 89.601 36.701 Q 90.701 36.838 92.132 36.952 A 96.255 96.255 0 0 0 93.501 37.051 Q 95.801 37.201 98.601 37.201 A 31.831 31.831 0 0 0 103.981 36.775 Q 106.86 36.28 109.164 35.211 A 15.221 15.221 0 0 0 112.401 33.201 A 12.896 12.896 0 0 0 117.256 23.758 A 17.32 17.32 0 0 0 117.301 22.501 A 14.452 14.452 0 0 0 116.54 17.707 A 12.136 12.136 0 0 0 112.601 12.201 A 15.462 15.462 0 0 0 107.52 9.537 Q 105.294 8.827 102.601 8.56 A 34.58 34.58 0 0 0 99.201 8.401 A 131.125 131.125 0 0 0 95.943 8.44 A 109.939 109.939 0 0 0 94.101 8.501 A 91.274 91.274 0 0 0 91.218 8.665 A 75.041 75.041 0 0 0 89.601 8.801 Z M 237.801 10.601 L 224.601 44.201 L 250.901 44.201 L 237.801 10.601 Z M 290.001 8.801 L 290.001 32.301 L 301.001 32.301 A 26.489 26.489 0 0 0 305.924 31.869 Q 309.853 31.126 312.701 29.101 Q 317.201 25.901 317.201 19.901 A 9.811 9.811 0 0 0 313.927 12.436 A 13.272 13.272 0 0 0 313.001 11.651 A 13.923 13.923 0 0 0 308.637 9.429 Q 306.708 8.818 304.378 8.57 A 31.944 31.944 0 0 0 301.001 8.401 Q 297.826 8.401 295.262 8.488 A 118.974 118.974 0 0 0 294.901 8.501 Q 292.201 8.601 290.001 8.801 Z" vector-effect="non-scaling-stroke"/></g></svg>